STARTFONT 2.1
FONT -Monotype-Monotype Corsiva-Regular-R-Normal--14-140-75-75-P-68-iso8859-4
SIZE 14 75 75
FONTBOUNDINGBOX 18 17 -3 -4

STARTPROPERTIES 24
FOUNDRY "Monotype"
FAMILY_NAME "Monotype Corsiva"
WEIGHT_NAME "Regular"
SLANT "R"
SETWIDTH_NAME "Normal"
ADD_STYLE_NAME ""
PIXEL_SIZE 14
POINT_SIZE 140
RESOLUTION_X 75
RESOLUTION_Y 75
SPACING "P"
AVERAGE_WIDTH 68
CHARSET_REGISTRY "iso8859"
CHARSET_ENCODING "4"
FACE_NAME "Monotype Corsiva ISO Latin4"
_DEC_DEVICE_FONTNAMES "PS=monotypecorsiva-lat4"
COPYRIGHT "Copyright (c) 1994 Monotype Typography Ltd."
CAP_HEIGHT 11
X_HEIGHT 7
WEIGHT 10
QUAD_WIDTH 8
DEFAULT_CHAR 160
FONT_DESCENT 5
FONT_ASCENT 13
ENDPROPERTIES

CHARS 191

STARTCHAR space
ENCODING 32
SWIDTH 220 0
DWIDTH 3 0
BBX 0 0 0 0
BITMAP
ENDCHAR

STARTCHAR exclam
ENCODING 33
SWIDTH 280 0
DWIDTH 4 0
BBX 2 9 1 0
BITMAP
40
40
40
80
80
80
00
80
80
ENDCHAR

STARTCHAR quotedbl
ENCODING 34
SWIDTH 220 0
DWIDTH 3 0
BBX 3 4 0 5
BITMAP
A0
A0
A0
A0
ENDCHAR

STARTCHAR numbersign
ENCODING 35
SWIDTH 680 0
DWIDTH 10 0
BBX 7 9 2 0
BITMAP
14
14
7E
28
28
28
FC
50
50
ENDCHAR

STARTCHAR dollar
ENCODING 36
SWIDTH 440 0
DWIDTH 7 0
BBX 6 12 1 -2
BITMAP
08
1C
28
28
30
10
28
28
A8
70
20
20
ENDCHAR

STARTCHAR percent
ENCODING 37
SWIDTH 680 0
DWIDTH 10 0
BBX 9 9 1 0
BITMAP
2200
5200
9400
A400
4900
1280
1480
2500
2200
ENDCHAR

STARTCHAR ampersand
ENCODING 38
SWIDTH 780 0
DWIDTH 12 0
BBX 11 11 1 -1
BITMAP
0020
01C0
0280
0480
2500
5100
9100
8A00
4420
3A20
01C0
ENDCHAR

STARTCHAR quoteright
ENCODING 39
SWIDTH 240 0
DWIDTH 4 0
BBX 2 4 1 6
BITMAP
40
40
40
80
ENDCHAR

STARTCHAR parenleft
ENCODING 40
SWIDTH 260 0
DWIDTH 4 0
BBX 6 14 1 -4
BITMAP
0C
10
20
20
40
40
80
80
80
80
80
80
40
40
ENDCHAR

STARTCHAR parenright
ENCODING 41
SWIDTH 220 0
DWIDTH 4 0
BBX 6 14 -2 -4
BITMAP
08
08
04
04
04
04
04
04
08
08
10
10
20
C0
ENDCHAR

STARTCHAR asterisk
ENCODING 42
SWIDTH 420 0
DWIDTH 6 0
BBX 5 5 1 5
BITMAP
20
F8
50
70
88
ENDCHAR

STARTCHAR plus
ENCODING 43
SWIDTH 520 0
DWIDTH 8 0
BBX 7 7 1 1
BITMAP
10
10
10
FE
10
10
10
ENDCHAR

STARTCHAR comma
ENCODING 44
SWIDTH 220 0
DWIDTH 3 0
BBX 2 4 1 -2
BITMAP
40
40
40
80
ENDCHAR

STARTCHAR minus
ENCODING 45
SWIDTH 600 0
DWIDTH 9 0
BBX 6 1 2 4
BITMAP
FC
ENDCHAR

STARTCHAR period
ENCODING 46
SWIDTH 220 0
DWIDTH 3 0
BBX 1 2 1 0
BITMAP
80
80
ENDCHAR

STARTCHAR slash
ENCODING 47
SWIDTH 340 0
DWIDTH 5 0
BBX 8 14 0 -4
BITMAP
01
02
02
04
04
08
08
10
10
20
20
40
40
80
ENDCHAR

STARTCHAR zero
ENCODING 48
SWIDTH 440 0
DWIDTH 7 0
BBX 6 9 1 0
BITMAP
18
24
44
44
84
88
88
90
60
ENDCHAR

STARTCHAR one
ENCODING 49
SWIDTH 440 0
DWIDTH 7 0
BBX 5 9 1 0
BITMAP
10
30
50
10
20
20
20
20
F8
ENDCHAR

STARTCHAR two
ENCODING 50
SWIDTH 440 0
DWIDTH 7 0
BBX 6 9 1 0
BITMAP
18
24
04
04
08
10
20
44
F8
ENDCHAR

STARTCHAR three
ENCODING 51
SWIDTH 440 0
DWIDTH 7 0
BBX 5 9 2 0
BITMAP
30
48
08
30
48
08
08
90
60
ENDCHAR

STARTCHAR four
ENCODING 52
SWIDTH 440 0
DWIDTH 7 0
BBX 6 9 1 0
BITMAP
04
0C
14
24
48
FC
10
10
10
ENDCHAR

STARTCHAR five
ENCODING 53
SWIDTH 440 0
DWIDTH 7 0
BBX 7 9 0 0
BITMAP
1E
10
20
38
04
04
04
88
70
ENDCHAR

STARTCHAR six
ENCODING 54
SWIDTH 440 0
DWIDTH 7 0
BBX 6 9 1 0
BITMAP
1C
20
40
70
88
88
88
90
60
ENDCHAR

STARTCHAR seven
ENCODING 55
SWIDTH 440 0
DWIDTH 7 0
BBX 6 9 1 0
BITMAP
7C
44
08
10
20
40
40
80
80
ENDCHAR

STARTCHAR eight
ENCODING 56
SWIDTH 440 0
DWIDTH 7 0
BBX 6 9 1 0
BITMAP
18
24
24
38
48
88
88
90
60
ENDCHAR

STARTCHAR nine
ENCODING 57
SWIDTH 440 0
DWIDTH 7 0
BBX 6 9 1 0
BITMAP
18
24
44
44
44
38
08
10
E0
ENDCHAR

STARTCHAR colon
ENCODING 58
SWIDTH 260 0
DWIDTH 4 0
BBX 2 6 1 0
BITMAP
40
40
00
00
80
80
ENDCHAR

STARTCHAR semicolon
ENCODING 59
SWIDTH 240 0
DWIDTH 4 0
BBX 3 8 1 -2
BITMAP
20
20
00
00
40
40
40
80
ENDCHAR

STARTCHAR less
ENCODING 60
SWIDTH 520 0
DWIDTH 8 0
BBX 6 7 1 1
BITMAP
04
18
60
80
60
18
04
ENDCHAR

STARTCHAR equal
ENCODING 61
SWIDTH 520 0
DWIDTH 8 0
BBX 7 3 1 3
BITMAP
FE
00
FE
ENDCHAR

STARTCHAR greater
ENCODING 62
SWIDTH 520 0
DWIDTH 8 0
BBX 6 7 1 1
BITMAP
80
60
18
04
18
60
80
ENDCHAR

STARTCHAR question
ENCODING 63
SWIDTH 380 0
DWIDTH 6 0
BBX 5 10 1 0
BITMAP
70
88
08
08
10
60
40
00
80
80
ENDCHAR

STARTCHAR at
ENCODING 64
SWIDTH 700 0
DWIDTH 10 0
BBX 9 10 1 -1
BITMAP
1E00
6100
4E80
9480
9480
A500
AE00
5500
6300
1C00
ENDCHAR

STARTCHAR A
ENCODING 65
SWIDTH 620 0
DWIDTH 9 0
BBX 10 10 0 -1
BITMAP
0780
0980
0A80
0280
0480
0700
0900
1100
21C0
C000
ENDCHAR

STARTCHAR B
ENCODING 66
SWIDTH 600 0
DWIDTH 9 0
BBX 9 9 0 0
BITMAP
1F00
2080
4880
8F00
8880
9080
5080
1100
7E00
ENDCHAR

STARTCHAR C
ENCODING 67
SWIDTH 520 0
DWIDTH 8 0
BBX 8 10 0 -1
BITMAP
1F
21
41
40
40
80
80
80
84
78
ENDCHAR

STARTCHAR D
ENCODING 68
SWIDTH 700 0
DWIDTH 10 0
BBX 10 9 0 0
BITMAP
1F00
2080
4840
8840
8840
9040
5080
1100
7E00
ENDCHAR

STARTCHAR E
ENCODING 69
SWIDTH 620 0
DWIDTH 9 0
BBX 9 9 0 0
BITMAP
3F80
4880
8800
8800
8F00
5000
1000
1080
7F00
ENDCHAR

STARTCHAR F
ENCODING 70
SWIDTH 580 0
DWIDTH 9 0
BBX 9 9 0 0
BITMAP
3F80
4880
8800
8800
8F00
5000
1000
1000
7C00
ENDCHAR

STARTCHAR G
ENCODING 71
SWIDTH 620 0
DWIDTH 9 0
BBX 8 12 1 -3
BITMAP
1E
21
41
80
80
8E
84
8C
74
04
48
30
ENDCHAR

STARTCHAR H
ENCODING 72
SWIDTH 680 0
DWIDTH 10 0
BBX 13 10 0 0
BITMAP
0030
3C48
4440
4440
2780
0880
0880
0900
9100
61C0
ENDCHAR

STARTCHAR I
ENCODING 73
SWIDTH 380 0
DWIDTH 6 0
BBX 6 9 0 0
BITMAP
7C
10
10
10
10
20
20
20
F8
ENDCHAR

STARTCHAR J
ENCODING 74
SWIDTH 400 0
DWIDTH 6 0
BBX 7 11 -1 -2
BITMAP
1E
22
22
12
04
04
04
04
04
88
70
ENDCHAR

STARTCHAR K
ENCODING 75
SWIDTH 660 0
DWIDTH 10 0
BBX 11 11 0 -2
BITMAP
7BC0
9100
9200
5400
1800
2400
2400
2200
7200
0120
00C0
ENDCHAR

STARTCHAR L
ENCODING 76
SWIDTH 580 0
DWIDTH 9 0
BBX 8 9 1 0
BITMAP
0C
12
20
20
20
40
40
41
FE
ENDCHAR

STARTCHAR M
ENCODING 77
SWIDTH 840 0
DWIDTH 13 0
BBX 12 9 0 0
BITMAP
1E10
2630
4630
4A50
2AA0
0AA0
0B20
1240
E270
ENDCHAR

STARTCHAR N
ENCODING 78
SWIDTH 700 0
DWIDTH 10 0
BBX 13 9 0 0
BITMAP
1C18
2420
4620
4A40
2A40
0980
1180
9080
6080
ENDCHAR

STARTCHAR O
ENCODING 79
SWIDTH 600 0
DWIDTH 9 0
BBX 8 9 1 0
BITMAP
1E
21
41
81
81
81
82
84
78
ENDCHAR

STARTCHAR P
ENCODING 80
SWIDTH 540 0
DWIDTH 8 0
BBX 9 9 0 0
BITMAP
3F00
4080
8880
8880
8F00
9000
5000
1000
3C00
ENDCHAR

STARTCHAR Q
ENCODING 81
SWIDTH 600 0
DWIDTH 9 0
BBX 11 13 1 -4
BITMAP
1E00
2100
4100
8100
8100
8100
8200
8400
7800
1000
0800
0620
01C0
ENDCHAR

STARTCHAR R
ENCODING 82
SWIDTH 600 0
DWIDTH 9 0
BBX 11 12 0 -3
BITMAP
3F00
4080
8880
8880
8F00
5400
1200
1200
3900
0100
00A0
0040
ENDCHAR

STARTCHAR S
ENCODING 83
SWIDTH 460 0
DWIDTH 7 0
BBX 7 10 0 -1
BITMAP
1E
22
22
20
18
04
04
84
88
70
ENDCHAR

STARTCHAR T
ENCODING 84
SWIDTH 500 0
DWIDTH 8 0
BBX 10 10 0 0
BITMAP
0040
3F80
4400
8400
8400
4800
0800
0800
0800
3E00
ENDCHAR

STARTCHAR U
ENCODING 85
SWIDTH 740 0
DWIDTH 11 0
BBX 10 10 1 0
BITMAP
0080
7840
9040
9040
1040
2080
2080
2100
2200
1C00
ENDCHAR

STARTCHAR V
ENCODING 86
SWIDTH 640 0
DWIDTH 10 0
BBX 11 10 0 0
BITMAP
0040
3820
5020
9040
9080
5100
1200
1400
1800
1000
ENDCHAR

STARTCHAR W
ENCODING 87
SWIDTH 880 0
DWIDTH 13 0
BBX 14 10 0 0
BITMAP
0008
3844
4884
8984
8984
5288
1290
14A0
18C0
1080
ENDCHAR

STARTCHAR X
ENCODING 88
SWIDTH 560 0
DWIDTH 8 0
BBX 11 11 0 -1
BITMAP
0060
1C80
0500
0600
0600
0600
0A00
1200
1200
2380
C000
ENDCHAR

STARTCHAR Y
ENCODING 89
SWIDTH 560 0
DWIDTH 8 0
BBX 11 9 0 0
BITMAP
3860
4880
8900
8600
4400
0800
0800
0800
3E00
ENDCHAR

STARTCHAR Z
ENCODING 90
SWIDTH 620 0
DWIDTH 9 0
BBX 9 9 0 0
BITMAP
1F80
2100
2200
0400
0800
1000
2080
4080
FF00
ENDCHAR

STARTCHAR bracketleft
ENCODING 91
SWIDTH 240 0
DWIDTH 4 0
BBX 5 14 0 -4
BITMAP
18
10
10
20
20
20
20
40
40
40
40
80
80
C0
ENDCHAR

STARTCHAR backslash
ENCODING 92
SWIDTH 480 0
DWIDTH 7 0
BBX 8 14 0 -4
BITMAP
80
40
40
20
20
10
10
08
08
04
04
02
02
01
ENDCHAR

STARTCHAR bracketright
ENCODING 93
SWIDTH 320 0
DWIDTH 4 0
BBX 5 14 0 -4
BITMAP
18
08
08
10
10
10
10
20
20
20
20
40
40
C0
ENDCHAR

STARTCHAR asciicircum
ENCODING 94
SWIDTH 520 0
DWIDTH 8 0
BBX 3 3 3 7
BITMAP
40
A0
A0
ENDCHAR

STARTCHAR underscore
ENCODING 95
SWIDTH 500 0
DWIDTH 8 0
BBX 8 1 0 -2
BITMAP
FF
ENDCHAR

STARTCHAR quoteleft
ENCODING 96
SWIDTH 240 0
DWIDTH 4 0
BBX 2 4 2 6
BITMAP
40
80
80
80
ENDCHAR

STARTCHAR a
ENCODING 97
SWIDTH 420 0
DWIDTH 6 0
BBX 6 6 0 0
BITMAP
1C
24
48
90
B4
D8
ENDCHAR

STARTCHAR b
ENCODING 98
SWIDTH 420 0
DWIDTH 6 0
BBX 6 10 1 0
BITMAP
18
24
20
40
70
48
88
88
90
60
ENDCHAR

STARTCHAR c
ENCODING 99
SWIDTH 340 0
DWIDTH 5 0
BBX 5 6 1 0
BITMAP
30
48
80
80
90
E0
ENDCHAR

STARTCHAR d
ENCODING 100
SWIDTH 440 0
DWIDTH 7 0
BBX 9 10 1 0
BITMAP
0300
0480
0400
0400
3800
4800
8800
9000
9400
E800
ENDCHAR

STARTCHAR e
ENCODING 101
SWIDTH 340 0
DWIDTH 5 0
BBX 4 6 1 0
BITMAP
30
50
E0
80
90
60
ENDCHAR

STARTCHAR f
ENCODING 102
SWIDTH 320 0
DWIDTH 5 0
BBX 10 14 -2 -4
BITMAP
0180
0240
0200
0400
1F00
0400
0400
0400
0800
0800
0800
0800
9000
6000
ENDCHAR

STARTCHAR g
ENCODING 103
SWIDTH 400 0
DWIDTH 6 0
BBX 7 10 0 -4
BITMAP
1E
24
24
44
58
28
48
88
90
60
ENDCHAR

STARTCHAR h
ENCODING 104
SWIDTH 440 0
DWIDTH 7 0
BBX 6 10 1 0
BITMAP
18
24
20
20
58
68
48
90
94
98
ENDCHAR

STARTCHAR i
ENCODING 105
SWIDTH 240 0
DWIDTH 4 0
BBX 3 9 1 0
BITMAP
20
00
00
40
C0
40
80
A0
C0
ENDCHAR

STARTCHAR j
ENCODING 106
SWIDTH 220 0
DWIDTH 3 0
BBX 7 13 -3 -4
BITMAP
02
00
00
04
0C
04
04
08
08
08
10
90
60
ENDCHAR

STARTCHAR k
ENCODING 107
SWIDTH 440 0
DWIDTH 7 0
BBX 8 13 1 -3
BITMAP
18
24
20
20
58
68
70
A0
A0
90
10
09
06
ENDCHAR

STARTCHAR l
ENCODING 108
SWIDTH 240 0
DWIDTH 4 0
BBX 6 10 1 0
BITMAP
18
24
20
40
40
40
80
80
A0
C0
ENDCHAR

STARTCHAR m
ENCODING 109
SWIDTH 620 0
DWIDTH 9 0
BBX 9 6 0 0
BITMAP
5B00
ED00
4900
9200
9280
9300
ENDCHAR

STARTCHAR n
ENCODING 110
SWIDTH 460 0
DWIDTH 7 0
BBX 6 6 1 0
BITMAP
58
E8
48
90
94
98
ENDCHAR

STARTCHAR o
ENCODING 111
SWIDTH 400 0
DWIDTH 6 0
BBX 5 6 1 0
BITMAP
30
48
88
88
90
60
ENDCHAR

STARTCHAR p
ENCODING 112
SWIDTH 440 0
DWIDTH 7 0
BBX 7 10 0 -4
BITMAP
2C
72
22
22
32
2C
40
40
40
E0
ENDCHAR

STARTCHAR q
ENCODING 113
SWIDTH 400 0
DWIDTH 6 0
BBX 5 10 1 -4
BITMAP
38
48
88
88
90
70
10
10
10
38
ENDCHAR

STARTCHAR r
ENCODING 114
SWIDTH 300 0
DWIDTH 5 0
BBX 5 6 2 0
BITMAP
58
E0
40
80
80
80
ENDCHAR

STARTCHAR s
ENCODING 115
SWIDTH 320 0
DWIDTH 5 0
BBX 5 6 0 0
BITMAP
30
48
60
10
90
60
ENDCHAR

STARTCHAR t
ENCODING 116
SWIDTH 320 0
DWIDTH 5 0
BBX 4 8 1 0
BITMAP
40
40
F0
40
40
80
90
60
ENDCHAR

STARTCHAR u
ENCODING 117
SWIDTH 460 0
DWIDTH 7 0
BBX 6 6 1 0
BITMAP
48
C8
48
90
B4
D8
ENDCHAR

STARTCHAR v
ENCODING 118
SWIDTH 440 0
DWIDTH 7 0
BBX 7 6 0 0
BITMAP
74
92
12
24
28
30
ENDCHAR

STARTCHAR w
ENCODING 119
SWIDTH 680 0
DWIDTH 10 0
BBX 11 6 0 0
BITMAP
7240
9220
1220
2640
2A80
3100
ENDCHAR

STARTCHAR x
ENCODING 120
SWIDTH 420 0
DWIDTH 6 0
BBX 9 8 0 -2
BITMAP
3300
0C00
0800
1800
2800
C400
0480
0300
ENDCHAR

STARTCHAR y
ENCODING 121
SWIDTH 400 0
DWIDTH 6 0
BBX 7 10 -1 -4
BITMAP
34
12
12
12
0C
04
08
08
90
60
ENDCHAR

STARTCHAR z
ENCODING 122
SWIDTH 440 0
DWIDTH 7 0
BBX 6 6 1 0
BITMAP
7C
88
30
44
64
98
ENDCHAR

STARTCHAR braceleft
ENCODING 123
SWIDTH 240 0
DWIDTH 4 0
BBX 5 14 1 -4
BITMAP
18
20
20
20
40
80
80
40
40
80
80
80
80
60
ENDCHAR

STARTCHAR bar
ENCODING 124
SWIDTH 520 0
DWIDTH 8 0
BBX 1 14 4 -4
BITMAP
80
80
80
80
80
80
80
80
80
80
80
80
80
80
ENDCHAR

STARTCHAR braceright
ENCODING 125
SWIDTH 240 0
DWIDTH 4 0
BBX 5 14 -1 -4
BITMAP
30
08
08
08
08
10
10
08
08
10
20
20
20
C0
ENDCHAR

STARTCHAR asciitilde
ENCODING 126
SWIDTH 520 0
DWIDTH 8 0
BBX 7 2 1 3
BITMAP
72
9C
ENDCHAR

STARTCHAR space
ENCODING 160
SWIDTH 220 0
DWIDTH 4 0
BBX 0 0 0 0
BITMAP
ENDCHAR

STARTCHAR Aogonek
ENCODING 161
SWIDTH 620 0
DWIDTH 9 0
BBX 10 12 0 -3
BITMAP
0780
0980
0A80
0280
0480
0700
0900
1100
21C0
C100
0100
00C0
ENDCHAR

STARTCHAR afii240
ENCODING 162
SWIDTH 444 0
DWIDTH 7 0
BBX 6 7 1 0
BITMAP
4C
50
60
C0
A0
90
98
ENDCHAR

STARTCHAR Rcommaaccent
ENCODING 163
SWIDTH 600 0
DWIDTH 9 0
BBX 11 13 0 -4
BITMAP
3F00
4080
8880
8880
8F00
5400
1200
1200
3900
0100
08A0
0840
1000
ENDCHAR

STARTCHAR currency
ENCODING 164
SWIDTH 600 0
DWIDTH 9 0
BBX 7 7 1 1
BITMAP
BA
44
82
82
82
44
BA
ENDCHAR

STARTCHAR Itilde
ENCODING 165
SWIDTH 380 0
DWIDTH 6 0
BBX 6 12 0 0
BITMAP
14
28
00
7C
10
10
10
20
20
20
20
F8
ENDCHAR

STARTCHAR Lcommaaccent
ENCODING 166
SWIDTH 580 0
DWIDTH 9 0
BBX 8 13 1 -4
BITMAP
0C
12
20
20
20
40
40
41
FE
00
10
10
20
ENDCHAR

STARTCHAR section
ENCODING 167
SWIDTH 420 0
DWIDTH 6 0
BBX 9 14 -1 -3
BITMAP
0300
0480
0C00
1400
1400
1200
1200
0A00
0A00
0A00
0A00
0C00
9800
6000
ENDCHAR

STARTCHAR hungarumlaut
ENCODING 168
SWIDTH 400 0
DWIDTH 6 0
BBX 6 3 0 7
BITMAP
6C
48
90
ENDCHAR

STARTCHAR Scaron
ENCODING 169
SWIDTH 460 0
DWIDTH 7 0
BBX 8 14 0 -1
BITMAP
11
0A
04
00
1E
22
22
20
18
04
04
84
88
70
ENDCHAR

STARTCHAR Emacron
ENCODING 170
SWIDTH 620 0
DWIDTH 9 0
BBX 9 11 0 0
BITMAP
0F00
0000
3F80
4880
8800
8800
9F00
5000
1000
1080
7F00
ENDCHAR

STARTCHAR Gcommaaccent
ENCODING 171
SWIDTH 620 0
DWIDTH 9 0
BBX 9 13 0 -4
BITMAP
0F00
1080
2080
4000
4000
4700
4200
4600
3A00
0200
4400
5800
8000
ENDCHAR

STARTCHAR afii237
ENCODING 172
SWIDTH 556 0
DWIDTH 8 0
BBX 10 10 0 0
BITMAP
0040
3F80
4400
8400
8400
BF00
0800
0800
0800
3E00
ENDCHAR

STARTCHAR hyphen
ENCODING 173
SWIDTH 280 0
DWIDTH 4 0
BBX 4 1 0 3
BITMAP
F0
ENDCHAR

STARTCHAR Zcaron
ENCODING 174
SWIDTH 620 0
DWIDTH 9 0
BBX 9 13 0 0
BITMAP
0880
0500
0200
0000
1F80
2100
2200
0400
0800
1000
2080
4080
FF00
ENDCHAR

STARTCHAR macron
ENCODING 175
SWIDTH 440 0
DWIDTH 7 0
BBX 3 1 2 7
BITMAP
E0
ENDCHAR

STARTCHAR degree
ENCODING 176
SWIDTH 400 0
DWIDTH 6 0
BBX 4 4 1 5
BITMAP
60
90
90
60
ENDCHAR

STARTCHAR aogonek
ENCODING 177
SWIDTH 420 0
DWIDTH 6 0
BBX 6 9 0 -3
BITMAP
1C
24
48
90
B4
D8
10
10
0C
ENDCHAR

STARTCHAR ogonek
ENCODING 178
SWIDTH 280 0
DWIDTH 4 0
BBX 2 3 1 -3
BITMAP
80
80
40
ENDCHAR

STARTCHAR rcommaaccent
ENCODING 179
SWIDTH 300 0
DWIDTH 5 0
BBX 6 10 1 -4
BITMAP
2C
70
20
40
40
40
00
40
40
80
ENDCHAR

STARTCHAR acute
ENCODING 180
SWIDTH 300 0
DWIDTH 5 0
BBX 3 3 1 7
BITMAP
60
40
80
ENDCHAR

STARTCHAR itilde
ENCODING 181
SWIDTH 240 0
DWIDTH 4 0
BBX 4 9 1 0
BITMAP
50
A0
00
40
C0
40
80
A0
C0
ENDCHAR

STARTCHAR lcommaaccent
ENCODING 182
SWIDTH 240 0
DWIDTH 4 0
BBX 7 14 0 -4
BITMAP
0C
12
10
20
20
20
40
40
50
60
00
40
40
80
ENDCHAR

STARTCHAR caron
ENCODING 183
SWIDTH 340 0
DWIDTH 5 0
BBX 5 3 0 7
BITMAP
88
50
20
ENDCHAR

STARTCHAR commaaccent
ENCODING 184
SWIDTH 333 0
DWIDTH 5 0
BBX 2 3 1 -4
BITMAP
40
40
80
ENDCHAR

STARTCHAR scaron
ENCODING 185
SWIDTH 320 0
DWIDTH 5 0
BBX 6 10 0 0
BITMAP
44
28
10
00
38
40
60
10
90
60
ENDCHAR

STARTCHAR emacron
ENCODING 186
SWIDTH 340 0
DWIDTH 5 0
BBX 5 8 1 0
BITMAP
78
00
30
50
E0
80
90
60
ENDCHAR

STARTCHAR gcommaaccent
ENCODING 187
SWIDTH 400 0
DWIDTH 6 0
BBX 7 14 0 -4
BITMAP
04
08
08
00
1E
24
24
44
58
28
48
88
90
60
ENDCHAR

STARTCHAR afii253
ENCODING 188
SWIDTH 278 0
DWIDTH 5 0
BBX 5 8 0 0
BITMAP
20
20
78
20
F8
40
48
30
ENDCHAR

STARTCHAR afii238
ENCODING 189
SWIDTH 685 0
DWIDTH 10 0
BBX 10 9 0 0
BITMAP
3DC0
4640
4440
2480
0880
0880
0900
9100
6600
ENDCHAR

STARTCHAR zcaron
ENCODING 190
SWIDTH 440 0
DWIDTH 7 0
BBX 6 10 1 0
BITMAP
44
28
10
00
7C
88
30
44
64
98
ENDCHAR

STARTCHAR afii254
ENCODING 191
SWIDTH 482 0
DWIDTH 7 0
BBX 5 9 1 -3
BITMAP
58
E8
48
90
90
98
08
08
30
ENDCHAR

STARTCHAR Amacron
ENCODING 192
SWIDTH 620 0
DWIDTH 9 0
BBX 10 12 0 -1
BITMAP
03C0
0000
0780
0980
0A80
0280
0480
0700
0900
1100
21C0
C000
ENDCHAR

STARTCHAR Aacute
ENCODING 193
SWIDTH 620 0
DWIDTH 9 0
BBX 10 14 0 -1
BITMAP
00C0
0080
0100
0000
0780
0980
0A80
0280
0480
0700
0900
1100
21C0
C000
ENDCHAR

STARTCHAR Acircumflex
ENCODING 194
SWIDTH 620 0
DWIDTH 9 0
BBX 11 14 0 -1
BITMAP
0080
0140
0220
0000
0780
0980
0A80
0280
0480
0700
0900
1100
21C0
C000
ENDCHAR

STARTCHAR Atilde
ENCODING 195
SWIDTH 620 0
DWIDTH 9 0
BBX 11 13 0 -1
BITMAP
0320
04C0
0000
0780
0980
0A80
0280
0480
0700
0900
1100
21C0
C000
ENDCHAR

STARTCHAR Adieresis
ENCODING 196
SWIDTH 620 0
DWIDTH 9 0
BBX 10 12 0 -1
BITMAP
0140
0000
0780
0980
0A80
0280
0480
0700
0900
1100
21C0
C000
ENDCHAR

STARTCHAR Aring
ENCODING 197
SWIDTH 620 0
DWIDTH 9 0
BBX 10 13 0 -1
BITMAP
0080
0140
0080
0780
0980
0A80
0280
0480
0700
0900
1100
21C0
C000
ENDCHAR

STARTCHAR AE
ENCODING 198
SWIDTH 740 0
DWIDTH 11 0
BBX 12 10 -1 -1
BITMAP
0FF0
0310
0500
0500
0FC0
1200
1200
2210
27E0
C000
ENDCHAR

STARTCHAR Iogonek
ENCODING 199
SWIDTH 380 0
DWIDTH 6 0
BBX 6 12 0 -3
BITMAP
7C
10
10
10
20
20
20
20
F8
20
20
18
ENDCHAR

STARTCHAR Ccaron
ENCODING 200
SWIDTH 520 0
DWIDTH 8 0
BBX 8 14 0 -1
BITMAP
11
0A
04
00
1F
21
41
40
40
80
80
80
84
78
ENDCHAR

STARTCHAR Eacute
ENCODING 201
SWIDTH 620 0
DWIDTH 9 0
BBX 9 13 0 0
BITMAP
0300
0200
0400
0000
3F80
4880
8800
8800
9F00
5000
1000
1080
3F00
ENDCHAR

STARTCHAR Eogonek
ENCODING 202
SWIDTH 620 0
DWIDTH 9 0
BBX 9 12 0 -3
BITMAP
3F80
4880
8800
8800
9F00
5000
1000
1080
3F00
0400
0400
0300
ENDCHAR

STARTCHAR Edieresis
ENCODING 203
SWIDTH 620 0
DWIDTH 9 0
BBX 9 11 0 0
BITMAP
0500
0000
3F80
4880
8800
8800
9F00
5000
1000
1080
3F00
ENDCHAR

STARTCHAR Edotaccent
ENCODING 204
SWIDTH 620 0
DWIDTH 9 0
BBX 9 11 0 0
BITMAP
0200
0000
3F80
4880
8800
8800
9F00
5000
1000
1080
3F00
ENDCHAR

STARTCHAR Iacute
ENCODING 205
SWIDTH 380 0
DWIDTH 6 0
BBX 6 13 0 0
BITMAP
0C
08
10
00
7C
10
10
10
20
20
20
20
F8
ENDCHAR

STARTCHAR Icircumflex
ENCODING 206
SWIDTH 380 0
DWIDTH 6 0
BBX 7 13 0 0
BITMAP
08
14
22
00
7C
10
10
10
20
20
20
20
F8
ENDCHAR

STARTCHAR Imacron
ENCODING 207
SWIDTH 380 0
DWIDTH 6 0
BBX 6 11 0 0
BITMAP
3C
00
7C
10
10
10
20
20
20
20
F8
ENDCHAR

STARTCHAR Eth
ENCODING 208
SWIDTH 700 0
DWIDTH 10 0
BBX 10 9 0 0
BITMAP
1F00
2080
4840
8840
BE40
9040
5080
1100
7E00
ENDCHAR

STARTCHAR Ncommaaccent
ENCODING 209
SWIDTH 700 0
DWIDTH 10 0
BBX 13 13 0 -4
BITMAP
1C18
2420
4620
4A40
2A40
0980
1180
9080
6080
0000
0400
0400
0800
ENDCHAR

STARTCHAR Omacron
ENCODING 210
SWIDTH 600 0
DWIDTH 9 0
BBX 8 11 1 0
BITMAP
1E
00
1E
21
41
81
81
81
82
84
78
ENDCHAR

STARTCHAR Kcommaaccent
ENCODING 211
SWIDTH 660 0
DWIDTH 10 0
BBX 11 13 0 -4
BITMAP
7BC0
9100
9200
5400
1800
2400
2400
2200
7200
0120
08C0
0800
1000
ENDCHAR

STARTCHAR Ocircumflex
ENCODING 212
SWIDTH 600 0
DWIDTH 9 0
BBX 8 13 1 0
BITMAP
04
0A
11
00
1E
21
41
81
81
81
82
84
78
ENDCHAR

STARTCHAR Otilde
ENCODING 213
SWIDTH 600 0
DWIDTH 9 0
BBX 9 12 1 0
BITMAP
0C80
1300
0000
1E00
2100
4100
8100
8100
8100
8200
8400
7800
ENDCHAR

STARTCHAR Odieresis
ENCODING 214
SWIDTH 600 0
DWIDTH 9 0
BBX 8 11 1 0
BITMAP
0A
00
1E
21
41
81
81
81
82
84
78
ENDCHAR

STARTCHAR multiply
ENCODING 215
SWIDTH 520 0
DWIDTH 8 0
BBX 5 5 2 2
BITMAP
88
50
20
50
88
ENDCHAR

STARTCHAR Oslash
ENCODING 216
SWIDTH 660 0
DWIDTH 9 0
BBX 8 9 1 0
BITMAP
1F
23
45
89
89
91
A2
C4
F8
ENDCHAR

STARTCHAR Uogonek
ENCODING 217
SWIDTH 740 0
DWIDTH 11 0
BBX 10 13 1 -3
BITMAP
0080
7840
9040
9040
1040
2080
2080
2100
2200
1C00
0800
0800
0600
ENDCHAR

STARTCHAR Uacute
ENCODING 218
SWIDTH 740 0
DWIDTH 11 0
BBX 10 13 1 0
BITMAP
0180
0100
0200
0080
7840
9040
9040
1040
2080
2080
2100
2200
1C00
ENDCHAR

STARTCHAR Ucircumflex
ENCODING 219
SWIDTH 740 0
DWIDTH 11 0
BBX 10 13 1 0
BITMAP
0200
0500
0880
0080
7840
9040
9040
1040
2080
2080
2100
2200
1C00
ENDCHAR

STARTCHAR Udieresis
ENCODING 220
SWIDTH 740 0
DWIDTH 11 0
BBX 10 12 1 0
BITMAP
0900
0000
0080
7840
9040
9040
9040
2080
2080
2100
2200
1C00
ENDCHAR

STARTCHAR Utilde
ENCODING 221
SWIDTH 740 0
DWIDTH 11 0
BBX 10 13 1 0
BITMAP
0640
0980
0000
0080
7840
9040
9040
9040
2080
2080
2100
2200
1C00
ENDCHAR

STARTCHAR Umacron
ENCODING 222
SWIDTH 740 0
DWIDTH 11 0
BBX 10 12 1 0
BITMAP
1F80
0000
0080
7840
9040
9040
9040
2080
2080
2100
2200
1C00
ENDCHAR

STARTCHAR germandbls
ENCODING 223
SWIDTH 420 0
DWIDTH 6 0
BBX 10 15 -2 -4
BITMAP
0180
0240
0240
0480
0480
0500
0500
0880
0880
0A80
0900
1000
1000
2000
C000
ENDCHAR

STARTCHAR amacron
ENCODING 224
SWIDTH 420 0
DWIDTH 6 0
BBX 7 8 0 0
BITMAP
1E
00
1C
24
48
90
B4
D8
ENDCHAR

STARTCHAR aacute
ENCODING 225
SWIDTH 420 0
DWIDTH 6 0
BBX 7 10 0 0
BITMAP
06
04
08
00
1C
24
48
90
B4
D8
ENDCHAR

STARTCHAR acircumflex
ENCODING 226
SWIDTH 420 0
DWIDTH 6 0
BBX 8 10 0 0
BITMAP
04
0A
11
00
1C
24
48
90
B4
D8
ENDCHAR

STARTCHAR atilde
ENCODING 227
SWIDTH 420 0
DWIDTH 6 0
BBX 8 9 0 0
BITMAP
19
26
00
1C
24
48
90
B4
D8
ENDCHAR

STARTCHAR adieresis
ENCODING 228
SWIDTH 420 0
DWIDTH 6 0
BBX 6 8 0 0
BITMAP
14
00
1C
24
48
90
B4
D8
ENDCHAR

STARTCHAR aring
ENCODING 229
SWIDTH 420 0
DWIDTH 6 0
BBX 6 10 0 0
BITMAP
08
14
08
00
1C
24
48
90
B4
D8
ENDCHAR

STARTCHAR ae
ENCODING 230
SWIDTH 540 0
DWIDTH 8 0
BBX 8 6 0 0
BITMAP
1B
2D
4E
98
B9
D6
ENDCHAR

STARTCHAR iogonek
ENCODING 231
SWIDTH 240 0
DWIDTH 4 0
BBX 3 12 1 -3
BITMAP
20
00
00
40
C0
40
80
A0
C0
80
80
60
ENDCHAR

STARTCHAR ccaron
ENCODING 232
SWIDTH 340 0
DWIDTH 5 0
BBX 6 10 1 0
BITMAP
44
28
10
00
30
48
80
80
90
E0
ENDCHAR

STARTCHAR eacute
ENCODING 233
SWIDTH 340 0
DWIDTH 5 0
BBX 5 10 1 0
BITMAP
18
10
20
00
30
50
E0
80
90
60
ENDCHAR

STARTCHAR eogonek
ENCODING 234
SWIDTH 340 0
DWIDTH 5 0
BBX 4 9 1 -3
BITMAP
30
50
E0
80
90
60
40
40
30
ENDCHAR

STARTCHAR edieresis
ENCODING 235
SWIDTH 340 0
DWIDTH 5 0
BBX 5 8 1 0
BITMAP
28
00
30
50
E0
80
90
60
ENDCHAR

STARTCHAR edotaccent
ENCODING 236
SWIDTH 340 0
DWIDTH 5 0
BBX 4 8 1 0
BITMAP
10
00
30
50
E0
80
90
60
ENDCHAR

STARTCHAR iacute
ENCODING 237
SWIDTH 240 0
DWIDTH 4 0
BBX 4 10 1 0
BITMAP
30
20
40
00
40
C0
40
80
A0
C0
ENDCHAR

STARTCHAR icircumflex
ENCODING 238
SWIDTH 240 0
DWIDTH 4 0
BBX 5 10 1 0
BITMAP
20
50
88
00
40
C0
40
80
A0
C0
ENDCHAR

STARTCHAR imacron
ENCODING 239
SWIDTH 240 0
DWIDTH 4 0
BBX 4 8 1 0
BITMAP
F0
00
40
C0
40
80
A0
C0
ENDCHAR

STARTCHAR dcroat
ENCODING 240
SWIDTH 440 0
DWIDTH 7 0
BBX 9 10 1 0
BITMAP
0380
0400
1F00
0400
3800
4800
8800
9000
9400
E800
ENDCHAR

STARTCHAR ncommaaccent
ENCODING 241
SWIDTH 460 0
DWIDTH 7 0
BBX 7 10 0 -4
BITMAP
6C
B4
24
48
4A
4C
00
10
10
20
ENDCHAR

STARTCHAR omacron
ENCODING 242
SWIDTH 400 0
DWIDTH 6 0
BBX 5 8 1 0
BITMAP
78
00
30
48
88
88
90
60
ENDCHAR

STARTCHAR kcommaaccent
ENCODING 243
SWIDTH 440 0
DWIDTH 7 0
BBX 8 14 1 -4
BITMAP
18
24
20
20
58
68
70
A0
A0
90
10
49
46
80
ENDCHAR

STARTCHAR ocircumflex
ENCODING 244
SWIDTH 400 0
DWIDTH 6 0
BBX 6 10 1 0
BITMAP
10
28
44
00
30
48
88
88
90
60
ENDCHAR

STARTCHAR otilde
ENCODING 245
SWIDTH 400 0
DWIDTH 6 0
BBX 5 9 1 0
BITMAP
28
50
00
30
48
88
88
90
60
ENDCHAR

STARTCHAR odieresis
ENCODING 246
SWIDTH 400 0
DWIDTH 6 0
BBX 5 8 1 0
BITMAP
28
00
30
48
88
88
90
60
ENDCHAR

STARTCHAR divide
ENCODING 247
SWIDTH 520 0
DWIDTH 8 0
BBX 7 5 1 2
BITMAP
10
00
FE
00
10
ENDCHAR

STARTCHAR oslash
ENCODING 248
SWIDTH 440 0
DWIDTH 6 0
BBX 5 6 1 0
BITMAP
38
58
A8
A8
D0
E0
ENDCHAR

STARTCHAR uogonek
ENCODING 249
SWIDTH 460 0
DWIDTH 7 0
BBX 6 9 1 -3
BITMAP
48
C8
48
90
B4
D8
10
10
0C
ENDCHAR

STARTCHAR uacute
ENCODING 250
SWIDTH 460 0
DWIDTH 7 0
BBX 6 10 1 0
BITMAP
18
10
20
00
48
C8
48
90
B4
D8
ENDCHAR

STARTCHAR ucircumflex
ENCODING 251
SWIDTH 460 0
DWIDTH 7 0
BBX 6 10 1 0
BITMAP
10
28
44
00
48
C8
48
90
B4
D8
ENDCHAR

STARTCHAR udieresis
ENCODING 252
SWIDTH 460 0
DWIDTH 7 0
BBX 6 8 1 0
BITMAP
28
00
48
C8
48
90
B4
D8
ENDCHAR

STARTCHAR utilde
ENCODING 253
SWIDTH 460 0
DWIDTH 7 0
BBX 7 9 1 0
BITMAP
32
4C
00
48
C8
48
90
B4
D8
ENDCHAR

STARTCHAR umacron
ENCODING 254
SWIDTH 460 0
DWIDTH 7 0
BBX 6 8 1 0
BITMAP
78
00
48
C8
48
90
B4
D8
ENDCHAR

STARTCHAR dotaccent
ENCODING 255
SWIDTH 220 0
DWIDTH 3 0
BBX 1 1 1 8
BITMAP
80
ENDCHAR
ENDFONT
